<?xml version="1.0" standalone="no"?>
<!DOCTYPE svg PUBLIC "-//W3C//DTD SVG 20010904//EN"
 "http://www.w3.org/TR/2001/REC-SVG-20010904/DTD/svg10.dtd">
<svg version="1.0" xmlns="http://www.w3.org/2000/svg"
 width="655.000000pt" height="1280.000000pt" viewBox="0 0 655.000000 1280.000000"
 preserveAspectRatio="xMidYMid meet">
<metadata>
Created by potrace 1.15, written by Peter Selinger 2001-2017
</metadata>
<g transform="translate(0.000000,1280.000000) scale(0.100000,-0.100000)"
fill="#2196f3" stroke="none">
<path d="M3080 12714 c-443 -55 -837 -253 -1146 -577 -302 -316 -494 -735
-544 -1182 -8 -71 -10 -875 -8 -2805 l3 -2705 22 -110 c120 -597 439 -1072
918 -1365 711 -437 1643 -325 2243 269 300 296 481 640 575 1096 21 100 21
111 24 2825 3 2433 2 2737 -12 2840 -118 859 -727 1528 -1540 1690 -86 18
-153 23 -305 25 -107 2 -211 1 -230 -1z"/>
<path d="M112 6962 c-29 -19 -32 -90 -32 -712 0 -860 13 -1067 84 -1377 216
-936 872 -1729 1765 -2133 235 -106 564 -207 789 -242 l82 -12 0 -518 0 -518
-790 0 -790 0 0 -690 0 -690 2055 0 2055 0 0 690 0 690 -790 0 -790 0 0 518 0
518 83 12 c45 7 146 28 223 47 1162 284 2067 1188 2330 2328 71 310 84 517 84
1377 0 622 -3 693 -32 712 -7 4 -223 8 -480 8 l-468 0 -14 -22 c-13 -20 -15
-140 -19 -808 -4 -849 -4 -851 -62 -1081 -183 -720 -756 -1302 -1490 -1512
-468 -134 -991 -113 -1435 58 -659 254 -1148 795 -1315 1454 -58 230 -58 232
-62 1081 -4 668 -6 788 -19 808 l-14 22 -468 0 c-257 0 -473 -4 -480 -8z"/>
</g>
</svg>
