<?xml version="1.0" encoding="utf-8"?>
<!-- Generator: Adobe Illustrator 19.0.0, SVG Export Plug-In . SVG Version: 6.00 Build 0)  -->
<svg xmlns="http://www.w3.org/2000/svg" xmlns:xlink="http://www.w3.org/1999/xlink" version="1.1" id="Layer_1" x="0px" y="0px" viewBox="0 2 98 98" style="enable-background:new 0 2 98 98;" xml:space="preserve" width="512" height="512">
<style type="text/css">
	.st0{fill:url(#SVGID_1_);}
</style>
<linearGradient id="SVGID_1_" gradientUnits="userSpaceOnUse" x1="49" y1="6.7002" x2="49" y2="95.2998">
	<stop offset="0" style="stop-color:#00EFD1"/>
	<stop offset="1" style="stop-color:#00ACEA"/>
</linearGradient>
<path class="st0" d="M49,70.7c9.5,0,17.3-7.8,17.3-17.4V37.9l19.2-19.2c1.2-1.2,1.2-3.1,0-4.2c-1.2-1.2-3.1-1.2-4.2,0l-15,15V24  c0-9.5-7.8-17.3-17.3-17.3S31.7,14.5,31.7,24v29.4c0,3.1,0.8,5.9,2.2,8.4l-3.6,3.6c-2.3-3.5-3.6-7.6-3.6-12.1V41.6c0-1.7-1.3-3-3-3  s-3,1.3-3,3v11.8c0,6.1,2,11.8,5.3,16.4L12.5,83.3c-1.2,1.2-1.2,3.1,0,4.2c0.6,0.6,1.4,0.9,2.1,0.9s1.5-0.3,2.1-0.9l13.2-13.2  c4.3,4,9.9,6.6,16.1,7.2v7.8h-9.4c-1.7,0-3,1.3-3,3s1.3,3,3,3h24.8c1.7,0,3-1.3,3-3s-1.3-3-3-3H52v-7.8C66.2,80,77.3,68,77.3,53.4  V41.6c0-1.7-1.3-3-3-3s-3,1.3-3,3v11.8c0,12.3-10,22.3-22.3,22.3c-5.7,0-10.9-2.1-14.8-5.6l3.5-3.5C40.8,69.1,44.7,70.7,49,70.7z   M60.3,53.3c0,6.3-5.1,11.4-11.3,11.4c-2.6,0-5.1-0.9-7-2.5l18.3-18.3V53.3z M37.7,53.4V24c0-6.2,5.1-11.3,11.3-11.3  c6.2,0,11.3,5.1,11.3,11.3v11.5L38.4,57.3C38,56.1,37.7,54.8,37.7,53.4z"/>
</svg>
